HIERARCHY
ROOT Hips
{
	OFFSET 0.000000 0.000000 0.000000
	CHANNELS 6 Xposition Yposition Zposition Xrotation Yrotation Zrotation
	JOINT LeftUpLeg_virtual
	{
		OFFSET 0.000000 0.000000 0.000000
		CHANNELS 3 Xrotation Yrotation Zrotation
		JOINT LeftUpLeg
		{
			OFFSET 13.026900 -6.336304 -1.092800
			CHANNELS 3 Xrotation Yrotation Zrotation
			JOINT LeftLeg
			{
				OFFSET 0.524474 -46.096886 9.782700
				CHANNELS 3 Xrotation Yrotation Zrotation
				JOINT LeftFoot
				{
					OFFSET -0.524474 -53.427422 -12.948200
					CHANNELS 3 Xrotation Yrotation Zrotation
					JOINT LeftToeBase
					{
						OFFSET 0.192200 -14.009700 16.364100
						CHANNELS 3 Xrotation Yrotation Zrotation
						JOINT LeftToe_End
						{
							OFFSET -1.784700 -0.561700 9.474800
							CHANNELS 3 Xrotation Yrotation Zrotation
							End Site
							{
								OFFSET 0 0 0
							}
						}
					}
				}
			}
		}
	}
	JOINT RightUpLeg_virtual
	{
		OFFSET 0.000000 0.000000 0.000000
		CHANNELS 3 Xrotation Yrotation Zrotation
		JOINT RightUpLeg
		{
			OFFSET -12.883000 -6.336304 -1.092800
			CHANNELS 3 Xrotation Yrotation Zrotation
			JOINT RightLeg
			{
				OFFSET -0.524587 -46.096825 9.782800
				CHANNELS 3 Xrotation Yrotation Zrotation
				JOINT RightFoot
				{
					OFFSET 0.524587 -53.427383 -12.948300
					CHANNELS 3 Xrotation Yrotation Zrotation
					JOINT RightToeBase
					{
						OFFSET -0.192200 -14.009700 16.364100
						CHANNELS 3 Xrotation Yrotation Zrotation
						JOINT RightToe_End
						{
							OFFSET 1.784700 -0.561700 9.474800
							CHANNELS 3 Xrotation Yrotation Zrotation
							End Site
							{
								OFFSET 0 0 0
							}
						}
					}
				}
			}
		}
	}
	JOINT Spine_virtual
	{
		OFFSET 0.000000 0.000000 0.000000
		CHANNELS 3 Xrotation Yrotation Zrotation
		JOINT Spine
		{
			OFFSET 0.072000 7.257294 -0.789700
			CHANNELS 3 Xrotation Yrotation Zrotation
			JOINT Spine1
			{
				OFFSET 0.000000 12.508769 -0.658067
				CHANNELS 3 Xrotation Yrotation Zrotation
				JOINT Spine1_split
				{
					OFFSET 0.000000 12.508769 -0.658067
					CHANNELS 3 Xrotation Yrotation Zrotation
					JOINT Spine2
					{
						OFFSET 0.000000 12.508769 -0.658067
						CHANNELS 3 Xrotation Yrotation Zrotation
						JOINT Neck_virtual
						{
							OFFSET 0.000000 0.000000 0.000000
							CHANNELS 3 Xrotation Yrotation Zrotation
							JOINT Neck
							{
								OFFSET 0.000000 14.033295 7.520400
								CHANNELS 3 Xrotation Yrotation Zrotation
								JOINT Head
								{
									OFFSET 0.000000 8.198502 5.703100
									CHANNELS 3 Xrotation Yrotation Zrotation
									JOINT HeadTop_End
									{
										OFFSET 0.000000 17.760803 13.332701
										CHANNELS 3 Xrotation Yrotation Zrotation
										End Site
										{
											OFFSET 0 0 0
										}
									}
								}
							}
						}
						JOINT LeftShoulder_virtual
						{
							OFFSET 0.000000 0.000000 0.000000
							CHANNELS 3 Xrotation Yrotation Zrotation
							JOINT LeftShoulder
							{
								OFFSET 6.292450 5.785301 -0.669000
								CHANNELS 3 Xrotation Yrotation Zrotation
								JOINT LeftShoulder_split
								{
									OFFSET 6.292450 5.785301 -0.669000
									CHANNELS 3 Xrotation Yrotation Zrotation
									JOINT LeftArm
									{
										OFFSET 13.907140 -6.093903 1.965100
										CHANNELS 3 Xrotation Yrotation Zrotation
										JOINT LeftForeArm
										{
											OFFSET 34.140198 0.000000 0.000000
											CHANNELS 3 Xrotation Yrotation Zrotation
											JOINT LeftHand
											{
												OFFSET 40.960209 0.000000 0.000000
												CHANNELS 3 Xrotation Yrotation Zrotation
												End Site
												{
													OFFSET 0 0 0
												}
											}
										}
									}
								}
							}
						}
						JOINT RightShoulder_virtual
						{
							OFFSET 0.000000 0.000000 0.000000
							CHANNELS 3 Xrotation Yrotation Zrotation
							JOINT RightShoulder
							{
								OFFSET -6.292450 5.785301 -0.669000
								CHANNELS 3 Xrotation Yrotation Zrotation
								JOINT RightShoulder_split
								{
									OFFSET -6.292450 5.785301 -0.669000
									CHANNELS 3 Xrotation Yrotation Zrotation
									JOINT RightArm
									{
										OFFSET -13.907140 -6.093903 1.965100
										CHANNELS 3 Xrotation Yrotation Zrotation
										JOINT RightForeArm
										{
											OFFSET -34.140198 0.000000 0.000000
											CHANNELS 3 Xrotation Yrotation Zrotation
											JOINT RightHand
											{
												OFFSET -40.960209 0.000000 0.000000
												CHANNELS 3 Xrotation Yrotation Zrotation
												End Site
												{
													OFFSET 0 0 0
												}
											}
										}
									}
								}
							}
						}
					}
				}
			}
		}
	}
}
MOTION
Frames: 4
Frame Time: 0.03333333
1.992719 108.516533 -2.867748 0.000000 0.000000 0.000000 3.204969 -9.806024 -1.270516 -34.340610 5.349931 7.569148 26.214244 2.509629 3.216345 2.106949 -0.888741 -4.140446 1.474419 -0.987280 -1.093012 0.000000 0.000000 0.000000 2.986478 -10.422514 -1.244553 -11.750681 -12.325766 -13.442138 24.983500 -10.178442 1.224672 -14.717113 -3.928879 14.309283 -0.512685 0.324091 0.826005 0.000000 0.000000 0.000000 4.096902 -9.240445 -1.682533 21.466499 4.866993 1.768534 1.873473 1.993616 -0.451801 0.500336 -0.374035 0.262493 0.000000 0.000000 0.000000 2.595672 2.035761 -0.157081 -5.448780 16.326657 1.466515 7.861582 48.343959 -21.667674 0.000000 0.000000 0.000000 2.841999 2.330804 -0.429094 2.218350 -35.015795 5.812228 0.327856 0.627964 -4.663558 -25.063384 -15.809199 -66.618325 -0.319087 -45.718739 -7.865535 0.000000 0.000000 0.000000 3.380375 2.095150 -0.396528 8.584896 21.358773 -10.250274 -1.147626 3.658173 0.322094 -42.657335 14.578033 82.100875 -0.694622 53.117982 2.887266 0.000000 0.000000 0.000000 
2.185916 108.543633 -2.158638 0.000000 0.000000 0.000000 3.238359 -9.075363 -1.405550 -34.367886 5.467265 7.211028 26.506287 2.147388 3.251044 1.662664 -0.863378 -3.818343 1.418973 -1.010035 -1.060121 0.000000 0.000000 0.000000 3.003836 -9.742248 -1.377627 -10.953151 -12.284571 -13.498089 24.522240 -10.784339 1.217223 -14.712313 -4.028842 14.907549 -0.510374 0.269955 0.895529 0.000000 0.000000 0.000000 4.186897 -8.538768 -1.792906 21.272146 4.939850 1.402732 1.823703 2.090429 -0.635895 0.500189 -0.364453 0.236067 0.000000 0.000000 0.000000 2.565055 2.130121 -0.372120 -5.494161 16.191549 1.777944 6.926915 48.003290 -20.762264 0.000000 0.000000 0.000000 2.851944 2.415635 -0.685533 2.078901 -35.564679 5.770294 0.100732 0.576266 -4.960299 -24.684548 -15.743695 -66.452666 -0.256359 -45.501703 -6.742700 0.000000 0.000000 0.000000 3.396298 2.232091 -0.636492 8.430224 20.484294 -9.981885 -0.897118 3.801992 0.288119 -42.984324 15.145750 83.051699 -0.698773 52.564699 2.470950 0.000000 0.000000 0.000000 
2.347996 108.560120 -1.456810 0.000000 0.000000 0.000000 3.295089 -8.433593 -1.482355 -34.406993 5.526850 6.869276 26.851801 1.863694 3.283184 1.225252 -0.824746 -3.553981 1.369417 -1.031505 -1.028279 0.000000 0.000000 0.000000 3.037237 -9.165642 -1.447406 -10.282387 -12.190613 -13.576015 24.158376 -11.290432 1.175840 -14.722259 -4.120786 15.497013 -0.538710 0.225290 0.957622 0.000000 0.000000 0.000000 4.300992 -7.941169 -1.837695 21.075949 4.957757 1.002053 1.784673 2.167490 -0.814290 0.511307 -0.347566 0.229457 0.000000 0.000000 0.000000 2.545639 2.207206 -0.585178 -5.588293 15.947855 2.129929 5.720031 47.477615 -19.550064 0.000000 0.000000 0.000000 2.861606 2.483100 -0.935131 1.938740 -36.078582 5.734746 -0.085784 0.556254 -5.190230 -24.102792 -15.831962 -66.236108 -0.234744 -45.450729 -5.661989 0.000000 0.000000 0.000000 3.407337 2.349311 -0.863925 8.320539 19.859521 -9.788866 -0.729775 3.897363 0.307607 -43.213859 15.499504 83.863323 -0.780462 52.186566 2.203895 0.000000 0.000000 0.000000 
2.482307 108.560707 -0.791542 0.000000 0.000000 0.000000 3.381225 -7.882384 -1.511829 -34.469038 5.502966 6.540021 27.253824 1.644861 3.319126 0.809457 -0.779532 -3.361321 1.339618 -1.050394 -1.003627 0.000000 0.000000 0.000000 3.098482 -8.675760 -1.466937 -9.719472 -12.051680 -13.660109 23.854280 -11.712350 1.102082 -14.793681 -4.213252 16.041510 -0.554501 0.193543 1.009202 0.000000 0.000000 0.000000 4.442283 -7.450487 -1.838946 20.884859 4.913253 0.574334 1.752843 2.221961 -0.982760 0.497602 -0.302461 0.238196 0.000000 0.000000 0.000000 2.526864 2.264203 -0.793561 -5.742849 15.622208 2.537792 4.357429 46.843391 -18.077552 0.000000 0.000000 0.000000 2.870492 2.531438 -1.168424 1.815828 -36.581380 5.748205 -0.230955 0.572898 -5.355879 -23.347140 -16.053740 -65.992161 -0.252489 -45.550241 -4.639592 0.000000 0.000000 0.000000 3.414490 2.443414 -1.071456 8.248175 19.477932 -9.664890 -0.624198 3.949066 0.338017 -43.307067 15.630379 84.502055 -0.903253 51.923644 2.049387 0.000000 0.000000 0.000000 
